{
  "accessors": [
    {
      "bufferView": 2,
      "componentType": 5126,
      "count": 3756,
      "max": [
        0.09088480472564697,
        0.17883768677711487,
        0.07361115515232086
      ],
      "min": [
        -0.17814184725284576,
        -0.2161622941493988,
        -0.07638884335756302
      ],
      "type": "VEC3"
    },
    {
      "bufferView": 2,
      "byteOffset": 45072,
      "componentType": 5126,
      "count": 3756,
      "max": [
        0.9999576807022095,
        1.0,
        0.9999995231628418
      ],
      "min": [
        -1.0,
        -1.0,
        -1.0
      ],
      "type": "VEC3"
    },
    {
      "bufferView": 3,
      "componentType": 5126,
      "count": 3756,
      "max": [
        1.0,
        1.0,
        1.0,
        1.0
      ],
      "min": [
        -1.0,
        -1.0,
        -1.0,
        -1.0
      ],
      "type": "VEC4"
    },
    {
      "bufferView": 1,
      "componentType": 5126,
      "count": 3756,
      "max": [
        0.9990234375,
        0.9852091073989868
      ],
      "min": [
        0.0009765625,
        0.0009765625
      ],
      "type": "VEC2"
    },
    {
      "bufferView": 1,
      "byteOffset": 30048,
      "componentType": 5126,
      "count": 3756,
      "max": [
        0.9990234375,
        0.9852091073989868
      ],
      "min": [
        0.0009765625,
        0.0009765625
      ],
      "type": "VEC2"
    },
    {
      "bufferView": 1,
      "byteOffset": 60096,
      "componentType": 5126,
      "count": 3756,
      "max": [
        0.9990234375,
        0.9852091073989868
      ],
      "min": [
        0.0009765625,
        0.0009765625
      ],
      "type": "VEC2"
    },
    {
      "bufferView": 0,
      "componentType": 5125,
      "count": 13740,
      "type": "SCALAR"
    }
  ],
  "asset": {
    "extras": {
      "author": "Bruno.Ticianelli (https://sketchfab.com/Bruno.Ticianelli)",
      "license": "CC-BY-4.0 (http://creativecommons.org/licenses/by/4.0/)",
      "source": "https://sketchfab.com/3d-models/urna-eletronica-brazilian-voting-machine-22e106e64edb480882bf596ee1cd43f0",
      "title": "Urna Eletrônica | brazilian voting machine"
    },
    "generator": "Sketchfab-13.66.0",
    "version": "2.0"
  },
  "bufferViews": [
    {
      "buffer": 0,
      "byteLength": 54960,
      "name": "floatBufferViews",
      "target": 34963
    },
    {
      "buffer": 0,
      "byteLength": 90144,
      "byteOffset": 54960,
      "byteStride": 8,
      "name": "floatBufferViews",
      "target": 34962
    },
    {
      "buffer": 0,
      "byteLength": 90144,
      "byteOffset": 145104,
      "byteStride": 12,
      "name": "floatBufferViews",
      "target": 34962
    },
    {
      "buffer": 0,
      "byteLength": 60096,
      "byteOffset": 235248,
      "byteStride": 16,
      "name": "floatBufferViews",
      "target": 34962
    }
  ],
  "buffers": [
    {
      "byteLength": 295344,
      "uri": "scene.bin"
    }
  ],
  "images": [
    {
      "uri": "textures/Urna_baseColor.png"
    },
    {
      "uri": "textures/Urna_metallicRoughness.png"
    },
    {
      "uri": "textures/Urna_emissive.png"
    },
    {
      "uri": "textures/Urna_normal.png"
    }
  ],
  "materials": [
    {
      "doubleSided": true,
      "emissiveFactor": [
        1.0,
        1.0,
        1.0
      ],
      "emissiveTexture": {
        "index": 2
      },
      "name": "Urna",
      "normalTexture": {
        "index": 3,
        "scale": 0.364191586107691
      },
      "occlusionTexture": {
        "index": 1
      },
      "pbrMetallicRoughness": {
        "baseColorTexture": {
          "index": 0
        },
        "metallicFactor": 0.0,
        "metallicRoughnessTexture": {
          "index": 1
        }
      }
    }
  ],
  "meshes": [
    {
      "name": "Urna_low_Urna_0",
      "primitives": [
        {
          "attributes": {
            "NORMAL": 1,
            "POSITION": 0,
            "TANGENT": 2,
            "TEXCOORD_0": 3,
            "TEXCOORD_1": 4,
            "TEXCOORD_2": 5
          },
          "indices": 6,
          "material": 0,
          "mode": 4
        }
      ]
    }
  ],
  "nodes": [
    {
      "children": [
        1
      ],
      "matrix": [
        1.0,
        0.0,
        0.0,
        0.0,
        0.0,
        2.220446049250313e-16,
        -1.0,
        0.0,
        0.0,
        1.0,
        2.220446049250313e-16,
        0.0,
        0.0,
        0.0,
        0.0,
        1.0
      ],
      "name": "Sketchfab_model"
    },
    {
      "children": [
        2
      ],
      "matrix": [
        0.009999999776482582,
        0.0,
        0.0,
        0.0,
        0.0,
        0.0,
        0.009999999776482582,
        0.0,
        0.0,
        -0.009999999776482582,
        0.0,
        0.0,
        0.0,
        0.0,
        0.0,
        1.0
      ],
      "name": "e86a67243a9f42a2b5397d08c4724513.fbx"
    },
    {
      "children": [
        3
      ],
      "name": "RootNode"
    },
    {
      "children": [
        4
      ],
      "matrix": [
        100.0,
        0.0,
        0.0,
        0.0,
        0.0,
        -1.629206793918314e-05,
        -99.99999999999868,
        0.0,
        0.0,
        99.99999999999868,
        -1.629206793918314e-05,
        0.0,
        4.1641845703125,
        7.639075756072998,
        -1.866229772567749,
        1.0
      ],
      "name": "Urna_low"
    },
    {
      "mesh": 0,
      "name": "Urna_low_Urna_0"
    }
  ],
  "samplers": [
    {
      "magFilter": 9729,
      "minFilter": 9987,
      "wrapS": 10497,
      "wrapT": 10497
    }
  ],
  "scene": 0,
  "scenes": [
    {
      "name": "Sketchfab_Scene",
      "nodes": [
        0
      ]
    }
  ],
  "textures": [
    {
      "sampler": 0,
      "source": 0
    },
    {
      "sampler": 0,
      "source": 1
    },
    {
      "sampler": 0,
      "source": 2
    },
    {
      "sampler": 0,
      "source": 3
    }
  ]
}
